<svg xmlns="http://www.w3.org/2000/svg" viewBox="0 0 311.16 158.2"><defs><style>.cls-1{fill:none;stroke:#000;stroke-miterlimit:10;stroke-width:7.2px;}</style></defs><title>all-in-logo</title><g id="Layer_2" data-name="Layer 2"><g id="Layer_1-2" data-name="Layer 1"><path d="M182.84,115.25a5.43,5.43,0,0,1-1.62-4V38.14a5.39,5.39,0,0,1,1.62-4,5.59,5.59,0,0,1,9.61,4v73.12a5.53,5.53,0,0,1-1.57,4,5.81,5.81,0,0,1-8,0Z"/><path d="M215.62,115.3a5.48,5.48,0,0,1-1.57-4V38.14a5.48,5.48,0,0,1,1.57-4,5.35,5.35,0,0,1,3.94-1.57,5.29,5.29,0,0,1,2.38.59,6.31,6.31,0,0,1,1.94,1.46L271,97.21V38.14a5.38,5.38,0,0,1,1.62-4,5.53,5.53,0,0,1,4-1.57,5.35,5.35,0,0,1,3.94,1.57,5.49,5.49,0,0,1,1.57,4v73.12a5.48,5.48,0,0,1-1.57,4,5.35,5.35,0,0,1-3.94,1.57,6.62,6.62,0,0,1-2.43-.49,3.9,3.9,0,0,1-1.89-1.46L225.17,52.29v59a5.53,5.53,0,0,1-1.57,4,5.81,5.81,0,0,1-8,.05Z"/><path d="M75.15,51.79A33.38,33.38,0,0,1,87.81,64.45a35.74,35.74,0,0,1,4.6,18v30.62a3.79,3.79,0,0,1-1,2.71,3.62,3.62,0,0,1-2.77,1.07,3.66,3.66,0,0,1-3.78-3.78v-9.83a29.33,29.33,0,0,1-11.4,10.52,34,34,0,0,1-16.19,3.84,35.71,35.71,0,0,1-18-4.6,33.32,33.32,0,0,1-12.66-12.66A35.46,35.46,0,0,1,22,82.47a35.71,35.71,0,0,1,4.6-18A33.35,33.35,0,0,1,39.24,51.79a35.72,35.72,0,0,1,18-4.6A35.48,35.48,0,0,1,75.15,51.79Zm-3.78,55.13a26.22,26.22,0,0,0,9.89-10.08,30.53,30.53,0,0,0,0-28.73A26.68,26.68,0,0,0,71.37,58a27.26,27.26,0,0,0-14.11-3.72A27.13,27.13,0,0,0,33.19,68.11a30.06,30.06,0,0,0,0,28.73,26.65,26.65,0,0,0,10,10.08,27.59,27.59,0,0,0,14.11,3.65A27.6,27.6,0,0,0,71.37,106.92Z"/><path d="M113.39,111.07q-4.6-5.79-4.6-15V22.24a3.62,3.62,0,0,1,1.07-2.77,3.79,3.79,0,0,1,2.71-1,3.49,3.49,0,0,1,3.78,3.78V96.08a16.93,16.93,0,0,0,2.46,9.51,7.37,7.37,0,0,0,6.36,3.72h3.15a2.88,2.88,0,0,1,2.27,1,4.08,4.08,0,0,1,.88,2.77,3.8,3.8,0,0,1-1,2.71,3.62,3.62,0,0,1-2.77,1.07h-2.52A14.38,14.38,0,0,1,113.39,111.07Z"/><path d="M147.41,111.07q-4.6-5.79-4.6-15V22.24a3.62,3.62,0,0,1,1.07-2.77,3.79,3.79,0,0,1,2.71-1,3.49,3.49,0,0,1,3.78,3.78V96.08a16.93,16.93,0,0,0,2.46,9.51,7.37,7.37,0,0,0,6.36,3.72h3.15a2.88,2.88,0,0,1,2.27,1,4.07,4.07,0,0,1,.88,2.77,3.79,3.79,0,0,1-1,2.71,3.62,3.62,0,0,1-2.77,1.07h-2.52A14.38,14.38,0,0,1,147.41,111.07Z"/><polyline class="cls-1" points="174.52 144.53 3.6 144.53 3.6 3.6 307.56 3.6 307.56 144.53 287.88 144.53"/><path d="M191.12,141.87a5.47,5.47,0,0,1,2,2.15,6.46,6.46,0,0,1,.72,3.06,6.1,6.1,0,0,1-.78,3.06,5.69,5.69,0,0,1-2.15,2.16,6,6,0,0,1-3,.79,5.84,5.84,0,0,1-5.16-3,6,6,0,0,1-.79-3.06v-9.86a1.07,1.07,0,0,1,.31-.8,1.1,1.1,0,0,1,1.89.8v5.84a5.45,5.45,0,0,1,7-1.19Zm-1.3,8.75a3.81,3.81,0,0,0,1.38-1.46,4.26,4.26,0,0,0,.51-2.08,4.2,4.2,0,0,0-.51-2.07,3.83,3.83,0,0,0-1.38-1.45,3.78,3.78,0,0,0-5.29,1.45,4.26,4.26,0,0,0-.5,2.07,4.32,4.32,0,0,0,.5,2.08,3.82,3.82,0,0,0,5.29,1.46Z"/><path d="M206.19,142.13a1.36,1.36,0,0,1-.13.52l-6.62,14.89a.89.89,0,0,1-.84.67,1.36,1.36,0,0,1-.52-.13.91.91,0,0,1-.65-.84,1.15,1.15,0,0,1,.13-.52l2.16-4.87-4.87-9.24a.92.92,0,0,1-.11-.45.87.87,0,0,1,.17-.52,1.15,1.15,0,0,1,.45-.37,1.06,1.06,0,0,1,.43-.09,1,1,0,0,1,.91.61l4,7.88,3.48-7.85a.9.9,0,0,1,.84-.63,1.25,1.25,0,0,1,.52.11A.89.89,0,0,1,206.19,142.13Z"/><path d="M226.21,136.41a1,1,0,0,1-.75,1.78h-4.65v13.7a1.13,1.13,0,1,1-2.25,0v-13.7h-4.67a1,1,0,1,1,0-2.08h11.57A1,1,0,0,1,226.21,136.41Z"/><path d="M229.32,152.69a1.09,1.09,0,0,1-.32-.8V137.24a1.08,1.08,0,0,1,.32-.81,1.11,1.11,0,0,1,.8-.31h9.78a1.1,1.1,0,0,1,.8.29,1,1,0,0,1,.3.77,1,1,0,0,1-.3.73,1.13,1.13,0,0,1-.8.28h-8.65v5.26h6.21a1.12,1.12,0,0,1,.79.29,1,1,0,0,1,0,1.49,1.12,1.12,0,0,1-.79.29h-6.21v5.41h8.65a1.13,1.13,0,0,1,.8.28,1,1,0,0,1,.3.73,1,1,0,0,1-.3.77,1.1,1.1,0,0,1-.8.29h-9.78A1.09,1.09,0,0,1,229.32,152.69Z"/><path d="M244.46,152.69a1.09,1.09,0,0,1-.32-.8V137.24a1.08,1.08,0,0,1,.32-.81,1.11,1.11,0,0,1,.8-.31h3.92a8.65,8.65,0,0,1,4.35,1.08,7.65,7.65,0,0,1,3,3,9.51,9.51,0,0,1,0,8.73,7.62,7.62,0,0,1-3,3,8.65,8.65,0,0,1-4.35,1.08h-3.92A1.09,1.09,0,0,1,244.46,152.69Zm4.72-1.67a6.29,6.29,0,0,0,3.21-.82,5.72,5.72,0,0,0,2.21-2.3,7.45,7.45,0,0,0,0-6.68,5.74,5.74,0,0,0-2.21-2.29,6.29,6.29,0,0,0-3.21-.82h-2.79V151Z"/><path d="M261.4,152.69a1.09,1.09,0,0,1-.32-.8V137.24a1.08,1.08,0,0,1,.32-.81,1.11,1.11,0,0,1,.8-.31h3.92a8.65,8.65,0,0,1,4.35,1.08,7.65,7.65,0,0,1,3,3,9.51,9.51,0,0,1,0,8.73,7.62,7.62,0,0,1-3,3,8.65,8.65,0,0,1-4.35,1.08H262.2A1.09,1.09,0,0,1,261.4,152.69Zm4.72-1.67a6.29,6.29,0,0,0,3.21-.82,5.72,5.72,0,0,0,2.21-2.3,7.45,7.45,0,0,0,0-6.68,5.74,5.74,0,0,0-2.21-2.29,6.29,6.29,0,0,0-3.21-.82h-2.79V151Z"/><path d="M278.34,152.69a1.09,1.09,0,0,1-.32-.8V137.24a1.08,1.08,0,0,1,.32-.81,1.12,1.12,0,0,1,1.93.81v14.65a1.11,1.11,0,0,1-.31.8,1.16,1.16,0,0,1-1.61,0Z"/></g></g></svg>