<svg xmlns="http://www.w3.org/2000/svg" viewBox="0 0 4967.54 894.23"><defs><style>.cls-1{fill:#4271a1;}.cls-2{fill:#202020;}</style></defs><title>skinlab-logo-svg</title><g id="Layer_2" data-name="Layer 2"><g id="Layer_1-2" data-name="Layer 1"><path class="cls-1" d="M3377.54,867.41h525.11c4.62-9.68,9.38-19.51,14-29.4q75.56-161,151.09-322,100.31-213.95,200.56-427.92c4.38-9.35,9.17-18.52,13.19-28,2.28-5.39,5.67-7.81,11.36-7.78,17.67.07,35.33.16,53,0,6.56-.08,9.29,3.72,11.65,9q23,51,46.15,101.93,112.5,248.46,225,496.93,41.41,91.47,82.86,182.92a26.94,26.94,0,0,0,5.81,8.92c.12-3.31.33-6.61.33-9.92q0-386,0-772c0-3.33,0-6.67,0-10,.05-4.91,2.8-7.26,7.45-7.61,2.32-.18,4.66-.12,7-.12q214,0,428,.06c51.33.06,101.68,6.66,149.81,25.53,40,15.68,75.49,38,103,71.7,24.28,29.73,37.61,64.14,42.84,101.83,4.16,30,3.72,59.81-4.28,89.23-11.59,42.63-36.79,75.84-72.05,101.46-14.22,10.33-29.94,18.61-45,27.79-1.68,1-3.46,1.88-6.54,3.53,4.78,1.87,8.36,3.32,12,4.68,34.71,13.13,66.28,31.23,91.87,58.59,18.9,20.2,33,43.12,41.45,69.78,5.62,17.82,11.26,35.52,13.73,54.09,5.09,38.32,1.53,75.35-12.52,111.84-23.3,60.54-66.62,100.86-124,127.88-42,19.77-86.48,30.47-132.41,36-27.53,3.32-55.13,4.06-82.8,4q-224.49-.07-449,0a39.36,39.36,0,0,0-5,0c-8,1-12.5-2-16-9.83-17.36-39.29-35.44-78.27-53.24-117.36q-31.88-70-63.74-140c-1.08-2.38-2.29-4.7-3.51-7.19h-460c-2.33,4.78-4.85,9.77-7.21,14.83q-57.52,123.66-115,247.33c-1.12,2.42-2.29,4.81-3.43,7.22a8.06,8.06,0,0,1-8,5c-2.67,0-5.33.05-8,.05h-620c-15.56,0-15.58,0-15.58-15.35q0-428.47,0-856.95c0-15.65.07-15.71,15.49-15.72,14,0,28-.09,42,0,10.33.09,12.17,2,12.36,12.27.06,3,0,6,0,9q0,390,0,779.95Zm1418.67.38h12.2q166.45,0,332.89.05c26,0,52-.57,77.79-3.83,43.17-5.44,83.92-17.88,120.64-41.87,32.77-21.41,56-50,65.52-88.54,5.64-22.88,6.09-46.11,2.93-69.46-3.52-26-12.83-49.47-29-70.21-19.86-25.49-46.29-41.78-75.65-53.81-40.94-16.79-84-23.7-127.87-24-124.29-.72-248.58-.4-372.88-.45a49.85,49.85,0,0,0-6.58.85Zm0-425.34h8.91c117.28,0,234.56.19,351.83-.22a506.48,506.48,0,0,0,61.68-4.37,233.79,233.79,0,0,0,89.32-30.06c32.91-19.23,56.82-45.84,67.13-83.33,5.1-18.53,6.08-37.47,4.7-56.49-2.15-29.82-12.6-56.32-33.05-78.53-19.89-21.6-44.68-35.5-71.83-45.62-37-13.8-75.51-18.29-114.75-18.28q-177.42,0-354.83,0c-2.9,0-5.79.3-9.12.49ZM4119,590.85h392.88q-95.76-210.72-191-419.81l-2.41.09Z" transform="translate(-521.61 -49.45)"/><path class="cls-2" d="M3187.17,934.35c-16.88,0-33.23-1-49.41.3-14,1.13-22.76-3.77-31.68-14.71q-307.29-377-615.35-753.38c-1.85-2.26-3.81-4.43-5.56-6.45a6.3,6.3,0,0,0-1.46.31,1,1,0,0,0-.52.7q0,385.89,0,772.51h-65.85V58.76c3.38-.16,6.29-.42,9.2-.42,16.67,0,33.34.26,50-.16,6.28-.16,10.22,1.74,14.2,6.76,30.62,38.66,61.22,77.35,92.55,115.43,90.62,110.15,182.22,219.48,272.2,330.15,78.19,96.18,154.7,193.73,231.93,290.68,6.23,7.82,12.34,15.73,18.55,23.56,1.35,1.71,2.94,3.23,5.67,6.21V59h75.54Z" transform="translate(-521.61 -49.45)"/><path class="cls-2" d="M521.84,620.72h65.78c0,7.58.09,14.8,0,22-.36,23.42,1.71,46.58,7.43,69.34,13.54,53.93,44.9,94.34,92.76,122.22,30.24,17.62,63,28.55,97,35.64,62.77,13.06,126.22,15,190,10.59,42.74-3,84.46-10.92,124.56-26.4,24.72-9.54,47.82-21.88,67.78-39.56,30.66-27.17,45.82-61.47,46.78-102.22.47-20.12-1.72-39.91-8-59.11-7.85-23.89-21.89-43.16-42.77-57.4-24.2-16.51-50.93-27.76-78.85-35.61-30.08-8.46-60.65-15.24-91.13-22.21-70.71-16.17-141.58-31.63-212.21-48.14a608.3,608.3,0,0,1-94.12-29.82c-31.7-13.1-60.55-30.7-84.92-55.12-32-32.07-48.64-71.1-51.57-116-1.79-27.45.66-54.61,8.48-81.09C572.05,163,599.44,129,638.73,104.21c32-20.14,67.11-32.16,103.75-40.2,66.27-14.55,133.46-16.4,200.86-13.27,43.67,2,86.81,8.35,128.79,21.22,25.56,7.83,50.07,18.06,73,31.94,58.91,35.66,94.15,88,108.84,154.72,5.17,23.48,7.51,47.28,8,72h-64.4c-.44-4.06-1-8.54-1.41-13-2.28-26.31-7.14-52.08-16.17-77-17.82-49.13-50.58-83.7-99.47-102.87-28.72-11.26-58.5-17.91-89-21.81-51.08-6.53-102.33-7.38-153.64-3.68-40.63,2.93-80.72,9-119.1,23.53-17.21,6.53-33.49,14.76-48.33,25.72-33.78,24.94-51.21,58.75-54.19,100.28-1.22,17-.12,34,4.51,50.53,7.44,26.62,22.76,47.86,44.37,64.82,21,16.51,45.27,26.52,70.34,34.81,43.07,14.24,87.29,23.84,131.84,31.94,72.38,13.16,144.57,27.15,215.18,48.17,28.73,8.55,57.28,17.83,83.93,31.7a288,288,0,0,1,40.67,25.17c31.54,23.83,52.57,55.29,63.43,93.37,10.59,37.15,12.85,74.82,5.14,112.7-9,44.3-33,79.51-68.06,107.44-34.11,27.16-73.11,44.73-114.43,57.53-42.21,13.08-85.55,19.58-129.6,22.32a772.82,772.82,0,0,1-122.81-2.53c-55-5.34-108.53-16.81-159-40-25.81-11.87-50.15-26.25-72.12-44.39-46.47-38.39-73.25-88-83.6-146.93C521,679.69,521.44,650.74,521.84,620.72Z" transform="translate(-521.61 -49.45)"/><path class="cls-2" d="M1378.59,58.83h65v477c5.66-.58,8.47-4.11,11.73-6.53Q1662.71,375.24,1870,221q105.08-78.13,210.07-156.38a30.74,30.74,0,0,1,20.11-6.48c30,.37,59.92.15,89.71.15a5.62,5.62,0,0,1,.57,1.26,1.31,1.31,0,0,1-.23.87,7.22,7.22,0,0,1-1.33,1.43L1686.37,434.63c-.23.17-.31.54-1.08,2l526.14,497.76h-10c-24.67,0-49.33-.17-74,.12-5.8.07-9.85-1.79-14-5.73Q1898,725,1682.43,521.55q-21.81-20.6-43.62-41.19c-2.4-2.26-4.9-4.4-7.67-6.87l-187,141.87V933.68h-65.5Z" transform="translate(-521.61 -49.45)"/><path class="cls-2" d="M2331.5,934h-64.85V58.32h63.59C2332.69,66.51,2333.84,897.82,2331.5,934Z" transform="translate(-521.61 -49.45)"/></g></g></svg>